<?xml version="1.0" encoding="UTF-8"?><svg id="Layer_0_Image" data-name="Layer 0 Image" xmlns="http://www.w3.org/2000/svg" viewBox="0 0 800 600" x="0px" y="0px" width="800px" height="600px" xmlns:xlink="http://www.w3.org/1999/xlink" version="1.1"><title>1</title><path d="M540.609,482.091c-.55,12.336-.617,24.721-1.864,36.986-.57,5.6-1.028,13.356-9.724,12.933-10.185-.5-15.875-7.813-15.526-16.8,1.334-34.281-2.922-68.1-8.224-101.917-5.872-37.455-15.349-74.238-30.439-108.532-12.253-27.847-28.314-54.515-46.8-79.365-38.151-51.284-83.42-95.666-131.016-137.909-3.752-3.33-8.391-6.034-9.757-11.374-.592-2.312-2.183-4.849.47-7.013,2.485-2.026,4.968-.963,7.057.437a170.458,170.458,0,0,1,15.028,10.8C365.549,127.216,418.247,177.057,460,237.291,511.009,310.885,538.327,392.315,540.609,482.091Z"/><path d="M433.719,453.039c-1.209,8.138.037,16.508-3.165,24.47-1.161,2.886-2.054,5.451-5.469,5.92-12.507,1.716-24.27-9.489-25.184-22.32-6.57-92.328-36.37-173.816-110.679-234.148a181.871,181.871,0,0,0-19.534-13.875c-5.891-3.609-12.734-8.65-9.437-14.805,4.17-7.785,11.858-1.619,17.122,1.2,24.939,13.352,45.8,31.986,65.347,52.157,47.194,48.7,75.11,107.239,87.867,173.367C432.36,434.194,432.708,443.66,433.719,453.039Z"/></svg>