<?xml version="1.0" encoding="UTF-8"?><svg id="Layer_0_Image" data-name="Layer 0 Image" xmlns="http://www.w3.org/2000/svg" viewBox="0 0 800 600" x="0px" y="0px" width="800px" height="600px" version="1.1" xmlns:xlink="http://www.w3.org/1999/xlink"><title>1</title><path d="M232.813,345.242c.358-16.684,2.647-33.138,8.43-48.715,6.072-16.356,9.152-33.3,12.93-50.191,6.875-30.737,18.674-59.328,40.8-82.619,18.5-19.474,40.885-32.088,67.565-36.032a128.2,128.2,0,0,1,57.823,4.177,13.024,13.024,0,0,0,6.118.818c18.462-3.109,36.014.169,53.014,7.483,20.759,8.93,39.128,21.293,54.415,38.012,11.733,12.832,21,27.355,26.442,43.847,6.188,18.758,8.9,38.033,5.084,57.838-.9,4.656-.534,9.837-1.882,14.141-1.66,5.3-2.387,10.779-4.116,15.98-2.956,8.892-3.981,18.162-6.008,27.23a148.972,148.972,0,0,1-11.962,32.651c-7.074,14.527-15.993,28.029-27.471,39.3-10.219,10.035-20.777,19.777-33.5,27.134-9.095,5.258-17.8,11.264-27.245,16-30.507,15.283-62.647,23.311-96.9,21.215-26.468-1.619-50.847-9.721-72.333-25.5-30.011-22.042-46.472-51.889-50.235-88.829C233.3,354.548,233.125,349.888,232.813,345.242Zm48.209-155.495c-1.37.034-1.869,1.164-2.4,2.085-5.057,8.694-9.68,17.634-12.789,27.205-1.064,3.276-3.985,6.088-3.166,10.126a4.747,4.747,0,0,0,2.857-4.308c.15-3.3,1.821-6.076,3.17-8.963q6.125-13.11,12.229-26.232l17.43-22.853c-3.955,3.541-7.808,7.124-10.759,11.551C285.151,182.017,281.606,185.022,281.022,189.747Zm111.843-35.1c-9.107,1.509-16.108,4.36-22.233,9.314-6.2,5.013-9.939,11.753-13.962,18.52a126.053,126.053,0,0,0-12.246,29.371,164.823,164.823,0,0,0-5.414,27.685c-2.488,22.33-2.858,44.36,3.532,66.217,6.666,22.8,17.652,42.794,35.705,58.609,29.251,25.625,65.592,29.968,99.939,14.566a11.513,11.513,0,0,0,5.58-4.4,159.575,159.575,0,0,0,18.144-45.307,181.171,181.171,0,0,0,2.9-65.478c-4.16-31.527-15.526-59.866-37.391-83.346-11.329-12.166-23.662-23.2-40.858-26.473-5.131-.976-10.849-2.921-15,1.338A69.678,69.678,0,0,0,399.685,170.9c-12.852,24.3-15.551,49.9-7.736,76.324,3.039,10.276,9.547,18.208,18.638,24.014,1.727,1.1,5.289,1.836,4.1,4.364-1.052,2.232-4.395,1.595-6.837.895a10.492,10.492,0,0,1-2.588-1.245c-10.179-6.336-18.534-14.473-23.084-25.708-9.658-23.85-8.568-47.984-1.051-72.144C383.559,169.569,387.568,162.482,392.865,154.643Zm-58.776,33.131a10.368,10.368,0,0,0-2.137.914c-12.616,10.43-23.74,22.352-34.25,34.835a216.106,216.106,0,0,0-21.228,30.913c-4.27,7.355-8.365,14.952-9.314,23.728-2.306,21.322-1.888,42.514,2.409,63.593,6.13,30.065,17.4,57.569,38.969,80.138a89.822,89.822,0,0,0,39.131,24.291c24.392,7.449,47.252,1.211,69.306-9.375,14.269-6.848,26.81-16.374,38.5-26.894a75.55,75.55,0,0,0,14.644-16.975c-7.508.857-14.013,2.519-20.7,3.224-22.738,2.4-44.068-2.2-64.008-12.805-27.128-14.427-45.319-36.825-55.578-65.618-13.069-36.684-12.125-73.72-1.915-110.839C329.648,200.627,331.906,194.5,334.089,187.774ZM531.62,357.6a4.665,4.665,0,0,0-4.273,1.752c-4.659,5.818-10.677,9.774-16.861,13.816-3.562,2.327-7.161,4.616-10.812,6.836-5.923,3.6-9.089,9.655-13.258,14.891-12.4,15.577-26.663,29.181-43.583,39.967-20.194,12.872-41.593,21.254-65.918,22.321a107.41,107.41,0,0,1-37.7-4.542c-20.086-6.305-36.28-18.092-50.07-33.381-20.632-22.875-31.173-50.58-37.034-80.362-.443-2.253-1.118-4.461-1.684-6.691-1.566,5.569-1.332,10.989-1.425,16.4a119.732,119.732,0,0,0,16.764,62.99,102.758,102.758,0,0,0,46.756,42.185c18.124,8.281,37.077,12.3,56.984,11.259,21.882-1.14,42.7-6.753,62.7-15.586,33.912-14.983,63.342-35.758,85.165-66.249A120.282,120.282,0,0,0,531.62,357.6ZM454.872,156.034c2.91,4.012,7.322,6.074,10.931,9.148,20.739,17.668,34.805,39.7,44.143,65.179,9.207,25.128,10.972,51.047,8.994,77.278A169.734,169.734,0,0,1,507.7,355.581c-.463,1.208-1.96,2.747-.221,3.836,1.448.907,2.146-.946,3.038-1.709a107.45,107.45,0,0,0,23-28.174c5.607-9.677,10.382-19.54,9.7-31.592-3.037-53.856-25.261-97.387-68.5-129.913A98.925,98.925,0,0,0,454.872,156.034Zm97.084,101.593c-.29-30.73-10.225-57.666-32.488-79.367-19.761-19.263-41.986-34.119-70.52-36.837C499.9,165.546,534.193,204.155,551.956,257.627ZM283.045,218.676c.616-.695,1.251-1.375,1.848-2.087a290.346,290.346,0,0,1,40.908-39.95c8.414-6.761,18.377-11.4,26.522-18.275,9.051-7.635,18.1-14.8,29.229-19.028.086-.033.011-.492.011-1.237-23.025,1.912-43.226,10.7-60.606,25.388C303.473,178.266,289.092,195.6,283.045,218.676ZM500.767,343.422c2.168-4.442,4.132-9.259,3.841-14.647Q502.688,336.1,500.767,343.422Zm-3.691,13.414-1.082-.66q-2.388,5.339-4.777,10.678C493.628,363.714,496.172,360.662,497.076,356.836Z"/></svg>