<?xml version="1.0" encoding="UTF-8"?><svg id="Layer_0_Image" data-name="Layer 0 Image" xmlns="http://www.w3.org/2000/svg" viewBox="0 0 800 600" x="0px" y="0px" width="800px" height="600px" version="1.1" xmlns:xlink="http://www.w3.org/1999/xlink"><title>1</title><path d="M507.46,496.02l-4.608-4.577v-2.336c-2.767-3.024-5.472-5.913-8.1-8.87-2.218-2.5-4.21-5.208-6.554-7.575-2.607-2.634-4.887-5.546-7.653-8.089-2.5-2.295-5.838-4.033-7.385-7.147-1.8-3.623-5.744-4.727-8.009-7.776a102.046,102.046,0,0,0-7.086-7.827l-.9.9c-8.1-6.784-16.072-13.8-26.478-18.29l-.89-2.331-1.675,1.339c-5.4-2.849-11.081-5.41-16.375-8.411-6.515-3.693-13.816-5.821-19.843-10.554a27.586,27.586,0,0,0-10.809-4.754c-2.321-.52-1.862-2.024-2.726-3.238l-2.576,1.583-13.229-6.977,2.192-2.4c-1.394-1.971-1.321-5.147-6.29-5.967l5.8-2.029-4.34-4.021-2.683,1.637-4.06-2.3c.1-.657.021-1.475.289-1.614,1.981-1.025,4.032-1.915,6.047-2.842.7-3.805-3.031-3.461-4.645-5.069l1.288-1.288-1.52-3.015,6.374-4.44c6.655-.5,14.376-.463,21.81-1.908,3.837-.746,8.086-.135,11.3-1.658,3.992-1.889,7.988-.084,11.474-1.467,3.842-1.525,7.863-.523,11.391-1.662,3.871-1.249,7.883-.438,11.411-1.566,8.394-2.684,17.5-2.3,25.537-6.26,3.576.974,7.153-2.148,10.73,0,3.7-2.338,7.936-2.928,12.111-3.777,5.894-1.2,11.289-4.3,17.528-4.377,1.761-.022,3.506-1.4,6.361-2.637l-21.927-6.349-3.433-4.285-5.75,1.664c-7.242-2.8-16.021-3.037-22.377-9.057-2.446,3-5.942.712-8.555,1.539-8.575-4.372-17.749-4.834-27.5-7.285-.105-.114-1-1.1-1.859-2.039-3.47-1.322-7.144.463-10.682-1.784-2.567-1.631-6.464-1.983-9.633-1.644a18.851,18.851,0,0,1-10.45-2.1c-3.511-1.82-6.713-.6-10.3-1.546-.616-.673-1.519-1.657-2.769-3.02-7.971.738-16.036-.817-24.391-1.455l-2.573-3.386h-8.248l2.488-2.9c-4.128.4-6.486-1.8-8.682-4.87.427-.748.918-1.611,1.337-2.346l-11.994-12.314c.611-2.133,1.076-3.753,1.675-5.843l2.758-1.332V260.2l-3.171-1.072c-.353-4.745,2.461-7.893,5.65-10.782,3.736-.634,3.736-.634,6.281-5.291l-3.415,1.913c-.187-.727-.4-1.549-.695-2.693l5.118-.768c-.63-.8-1.048-1.327-1.357-1.719l9.179-12.681h3.581l-1.9-2.239,2.993-1.011v-3.405c1.043-1.042,1.8-1.8,2.559-2.559,1.753,1.457,4.589,1.741,5.013,4.662,2.57-3.583-.734-5.134-2.842-7.717l4.141-.362c2-3.3,4.662-6.15,4.793-10.695.11-3.79,3.869-5.66,7.644-7.2l-1.729-2.327,4.342-.845c-.053-.381-.131-.944-.364-2.617,1.5-2.11,4.253-4.779,5.507-8.026,1.784-4.623,6.838-6.168,8.586-10.933,1.533-4.177,4.4-7.9,7.59-11.4,4.345-4.779,7.552-10.592,11.514-16.348H392.41c-.361.766-.881,1.867-1.59,3.372l-3.49-2.189a55.826,55.826,0,0,0-6.295,3.767c-1.633,1.268-4.507,1.415-4.5,4.391-3.043-.8-4.683,1.453-6.469,3.2l-1.211-1.211c-6.564,6.383-14.518,10.492-22.834,14.052l-6.066,6.357h-2.667l-10.15,7.262c-.93-1.631-1.591-2.792-2.443-4.285l-6.47,3.691,1.391,5.683-14.81,9.873c.709-3.117,2.326-3.941,3.461-5.347-3.174-1.95-3.888,1.489-5.622,2.444-.784-.571-1.567-1.142-3.236-2.361l-1.12,4.316-1.231-1.192,1.873,3.194-5.637,2.8-1.991-1.743-1.816,1.663c.408,2.19.842,4.516,1.237,6.638-6.467,3.8-12.62,7.424-18.774,11.044q-.328-.328-.655-.658l2-2.783-11.3,2.078c-.908-3.082-1.748-5.935-2.967-10.075l-2.958-2.327c8.085-5.243,14.443-11.812,21.145-17.825,9.273-8.321,19.858-14.675,29.546-22.316,10.094-7.961,21.243-14.582,31.91-21.821,6.075-4.122,12.026-8.433,18.18-12.433,8.636-5.614,17.213-11.373,26.215-16.348,3.965-2.191,6.906-5.694,11.475-7.233,3.921-1.321,7.168-4.669,10.685-7.16,8.984-6.361,18.147-12.451,26.4-19.824,5.378-4.8,11.387-8.9,17.952-13.959h9.6c.075,2.328.98,4.837-1.579,7.388l5.957.661c3.843,6.587,4.507,13.681,3.482,21.951l-5.029,3.6-4.925,1.972c.909,2.521,1.592,4.415,2.234,6.2-2.135,2.888-4.078,5.926-6.442,8.591-2.015,2.271-1.885,6.524-6.918,5.969l2.271,2.271c-3.727,1.432-2.794,7.312-7.9,7.382-.167,1.408-.317,2.674-.5,4.171l-2.2.508c-3.637,9.559-10.507,17.108-16.888,25.2,0,.589.3,1.575-.053,2.166-1.433,2.379-2.6,5.8-4.738,6.672-3.479,1.41-3.292,6.612-7.894,6.263-.111,1.949-.214,3.752-.325,5.687l-2.956,1.082c-.051.942-.106,1.972-.191,3.563l-6.752,6.409c-.85-1.8-1.351-2.87-2.047-4.347-1.349,2.021-2.566,3.844-3.786,5.669.5.8,1,1.6,1.8,2.869-1.279.763-2.663,1.255-3.536,2.213-.764.838-.954,2.2-1.389,3.311l2,2.906-4.4,2.587-4-1.131v3.259c-2.737,1.463-4.666,2.463-5.417,6-1.279,6.012-5.03,11.276-7.887,16.776-.438.843-2.013,1.094-3.049,1.612l.949,1.144c-2.25,2.634-4.008,5.393-6.425,7.325-2.458,1.965-5.566,3.116-9.1,5.006-.719,1.759.974,2.215,5.332,1.331l-4.9,3.931-4.024-2.013,2.1,5.407-1.587,2.128c.753.7,1.706,2.262,2.455,2.17,3.662-.45,6.424,1.305,9.112,2.746,5.884-1.544,11.046,1.706,16.511,2.317a93.725,93.725,0,0,1,17.839,3.483c5.5,1.742,11.08,3.672,16.663,4.184,5.933.544,11.355,2.68,17.116,3.626a101.87,101.87,0,0,1,17.294,4.768c5.432,1.921,11.153,2.486,16.613,4.509a106.279,106.279,0,0,0,17.258,4.829c5.767,1.073,10.866,3.725,16.443,5.1,5.557,1.373,11.06,3.017,16.5,4.815,5.645,1.867,11.164,4.109,16.77,6.1,5.388,1.913,10.816,3.716,16.684,5.725l5.143,5.142-1.441,1.623c-.248,3.44,2.709,3.407,4.312,4.311.638,3.456,1.235,6.691,1.881,10.187l-1.31,1.414c3.758,4.2.9,7.791-1.483,10.935-2.4,3.176-5.59,5.76-8.63,8.8-7.745,1.085-14.471,7.366-23.308,4.988l-.644,3.153-15.473,2.537c-.055.186-.329,1.1-.532,1.777-4.466,1.239-8.773,2.551-13.146,3.588-1.719.407-3.993.9-5.3.134a8.363,8.363,0,0,0-9.424,0c-1.522.886-3.772.521-5.628,1.823h6.31c-.459.966-.665,1.67-.805,1.657-4.21-.385-8.094,1.216-11.877,2.48-3.185,1.064-6.764,1.628-9.08.326-3-1.687-5.587-.415-9.54-1.745l1.884,2.621c-4.767,3.063-6.758,3.917-10.5,2.068-3-1.48-5.491-.327-8.286.346l7.94.9-14.007,2.974c12.708,5.734,22.241,13.73,32.525,20.593,10.472,6.987,15.342,11.427,21.795,19.634,1.172,1.49,3.282,2.215,4.583,3.637,2.255,2.466,4.016,5.4,6.361,7.762,2.154,2.171,5.159,3.535,7.167,5.805,5.319,6.013,9.613,12.884,15.358,18.575.565.559.232,2.024.325,3.185,1.139.7,2.787,1.189,3.553,2.289,3.746,5.375,7.649,10.7,10.724,16.462,2.444,4.576,5.258,8.951,7.379,13.807,2.094,4.8,2.426,9.737,3.776,14.5,1.395,4.923.046,10.219-2.344,15.361-5.673-4.893-11.019,1.3-16.744.96l8.088.629-.081,1.286h-5.324c-1.609,0-3.218-.028-4.825.008-1.8.04-3.793-.5-5,1.519-1-2.371-2.933.413-3.94-.639-1.806-1.886-2.664,2.105-4.56.493a8.3,8.3,0,0,0-4.224-1.329,43.475,43.475,0,0,0-5.313-.052l-1.313-3.746-1.227,3.567-3.5.3L481,526.514l-3.395.184-1.221,3.345c-.651-1.359-1.15-2.4-1.649-3.439H472.97l-1.58,3.353c-4.625-1.5-8.935-3.657-13.989-3.538-2.289.054-4.618-1.618-7.18-2.6l-.915.706-13.414-3.585,3.991-3.248a12.188,12.188,0,0,0-6.9.849,6.47,6.47,0,0,1-.613-.458c-.39-.367-.761-.755-1.206-1.2-.357.39-.706.788-1.075,1.166a7.17,7.17,0,0,1-.616.5l-7.049-2.3v-7.071l-1.091-.525c-.661,1.013-1.321,2.027-2.26,3.467l1.96,3.561-9.71-2.4-.542-2.466c-4.054,2.747-7.036.525-10.068-1.82a10.729,10.729,0,0,0-3.309-1.685c-2.62-.821-5.3-1.462-8.49-2.323-.027-.093-.238-.808-.67-2.282l-6.128.415c.454.384,0-.261-.611-.475-4.919-1.724-10.035-2.863-14.82-5-.449-.2-1.045-.037-1.542-.162-3.245-.814-4.7-4.985-8.511-4.657-3.359.289-5.459-2.372-8.307-3.283-3.063-.979-6.036-2.245-9.028-3.435a19.853,19.853,0,0,0-2.669-1.3,19.043,19.043,0,0,0-3.694-.052l-2.422-3.2h-5.456c-3.223-3.38-6.428-6.855-11.762-6.47a1.97,1.97,0,0,1-1.431-.362c-4.585-5.2-11.812-5.2-17.287-8.9-5.279-3.565-11.718-5.358-17.335-8.489-7.44-4.148-14.585-8.826-21.833-13.317a4.871,4.871,0,0,1-1.691-1.7c-3.426-6.337-6.787-12.71-9.849-18.474.768-3.953,1.4-7.2,2.21-11.382l5.475-3.358c4.3,1.664,8.558,3.067,12.594,4.938a88.5,88.5,0,0,1,11.8,6.432c8.137,5.411,17.277,8.861,25.724,13.629,5,2.822,10.847,4.156,14.992,8.477,9.451,2.5,17.814,7.477,26.642,11.413,3.814,1.7,7.417,4,11.564,5.1,3.82,1.013,7.481,2.624,11.216,3.96,11.674,4.173,23.33,8.4,35.035,12.486q9.145,3.194,18.434,5.968c6.234,1.856,12.771,3.086,18.79,5.176,10.548,3.662,21.643,4.278,32.227,7.516,5.584,1.709,11.813,1.484,17.769,1.758C494.14,496.229,499.966,496.02,507.46,496.02Z"/></svg>